<?xml version="1.0" encoding="UTF-8"?>
<svg version="1.1" xmlns="http://www.w3.org/2000/svg" width="725" height="725">
<path d="M0 0 C29.3562399 -0.1138296 58.71230722 -0.14260429 88.06874371 -0.14427781 C94.98597905 -0.14478241 101.90321312 -0.14709725 108.82044792 -0.14977503 C131.80592705 -0.15848826 154.79140164 -0.16320597 177.77688244 -0.16244455 C179.60678426 -0.16238462 179.60678426 -0.16238462 181.47365379 -0.16232347 C182.69512878 -0.16228259 183.91660376 -0.16224171 185.17509314 -0.16219959 C205.15917897 -0.16178934 225.14324631 -0.17147748 245.12732676 -0.18546184 C265.83079829 -0.1998326 286.53426077 -0.20673255 307.23773742 -0.20586807 C318.79032484 -0.20553774 330.34289253 -0.20821639 341.89547539 -0.21904612 C351.67223628 -0.22815734 361.44896834 -0.23031891 371.22573164 -0.22353669 C376.19845302 -0.22028298 381.17111903 -0.2201748 386.14383507 -0.22888994 C390.7032761 -0.23679951 395.26261823 -0.23527882 399.82205698 -0.22660581 C401.45978146 -0.22508135 403.0975135 -0.22684659 404.73522905 -0.23246589 C436.61884687 -0.33453299 464.01261572 7.04307572 487.53908348 29.45266676 C503.96885207 46.7620948 513.1852971 69.33597759 513.11693668 93.19465399 C513.11868972 93.98091742 513.12044276 94.76718085 513.12224892 95.57727045 C513.12688951 98.20387508 513.12444844 100.83042388 513.122015 103.45703077 C513.12388394 105.36246651 513.12618498 107.26790187 513.12888032 109.17333663 C513.1349943 114.40348717 513.1348652 119.63362171 513.13368595 124.86377501 C513.13348184 130.50668935 513.13900159 136.14959856 513.14374352 141.79251051 C513.15204814 152.84524972 513.15479826 163.89798359 513.15535589 174.95072566 C513.15583109 183.93405092 513.15788601 192.91737443 513.16105652 201.90069914 C513.16842947 223.22508903 513.17458141 244.54947727 513.17405796 265.87386847 C513.17404238 266.55556959 513.1740268 267.23727072 513.17401075 267.93962946 C513.17392765 271.39466899 513.17382861 274.84970852 513.17372604 278.30474804 C513.17369613 279.33399919 513.17369613 279.33399919 513.1736656 280.3840433 C513.17362517 281.77163997 513.17358337 283.15923664 513.17354021 284.54683332 C513.17292739 306.13800979 513.18043596 327.72917056 513.19411278 349.32034254 C513.2094768 373.58497482 513.21806616 397.84959357 513.21714956 422.11423171 C513.21681745 434.95938987 513.21957072 447.80453032 513.23032761 460.64968443 C513.23942617 471.58463569 513.2416131 482.5195612 513.23481818 493.45451461 C513.2315499 499.03341116 513.23150749 504.61225831 513.24017143 510.19115019 C513.24802351 515.2997854 513.24661818 520.40833191 513.2378873 525.51696493 C513.23634948 527.36345987 513.23817906 529.20996138 513.24374738 531.05644856 C513.27755443 543.06385636 513.05206628 553.98545139 507.55080223 564.89797926 C507.27043114 565.5154402 506.99006004 566.13290113 506.70119286 566.76907301 C500.53345019 579.2050511 487.80762683 589.35443248 478.07033348 599.07376051 C476.75986004 600.38490988 475.44953488 601.69620747 474.13934898 603.00764418 C471.41556889 605.73288556 468.69002185 608.45634341 465.96315575 611.17849684 C462.48681056 614.64912284 459.01500657 618.12425157 455.54450512 621.60071993 C452.8481433 624.3007106 450.1493855 626.9982963 447.44991684 629.69518042 C446.16909384 630.97534176 444.88899818 632.25623128 443.60968018 633.53789663 C437.8581387 639.29768411 432.13714456 645.00212857 425.94040489 650.28657484 C422.10488416 653.69828841 418.55271083 657.40477076 414.95966721 661.06814528 C413.49364555 662.56130109 412.02287519 664.04962815 410.55063438 665.53665113 C406.37034454 669.75919865 402.19290596 673.98444048 398.0320034 678.22610426 C395.47049164 680.83663447 392.8988924 683.4368676 390.32081604 686.0310359 C389.35204745 687.00957603 388.38690883 687.99172613 387.42582321 688.97781324 C374.91518162 701.80669585 361.80149998 709.64524674 343.76168537 710.57754278 C342.96801671 710.61967565 342.17434806 710.66180851 341.35662883 710.70521813 C333.10767734 711.1127178 324.87136888 711.16267463 316.61417198 711.1499629 C314.94575846 711.15111877 313.27734519 711.1527094 311.60893244 711.15469015 C307.08003953 711.15881957 302.55116802 711.15682205 298.02227509 711.15370393 C293.11625032 711.1514237 288.210229 711.15494241 283.30420494 711.15768385 C273.71501244 711.16211273 264.12582779 711.16117791 254.53663499 711.15827121 C246.73736035 711.15600569 238.9380879 711.15570962 231.13881302 711.15679502 C230.02549163 711.15694826 228.91217024 711.15710149 227.76511184 711.15725937 C225.50286035 711.15757912 223.24060886 711.15790333 220.97835737 711.15823196 C199.80269728 711.16107834 178.62704153 711.15781301 157.45138215 711.15243159 C139.31435399 711.14796494 121.17733223 711.14873998 103.04030418 711.15335035 C81.93794555 711.15871205 60.83559071 711.16080308 39.73323148 711.15773809 C37.47935673 711.15741957 35.22548197 711.1571052 32.97160721 711.15679502 C31.86288997 711.15664075 30.75417273 711.15648647 29.611858 711.15632752 C21.82995488 711.15546711 14.04805418 711.15691499 6.26615143 711.15927458 C-3.22890371 711.16209054 -12.7239506 711.16129661 -22.2190048 711.15599383 C-27.05579977 711.15338088 -31.892581 711.15231058 -36.72937584 711.15564299 C-41.17005962 711.15865602 -45.61071714 711.15693119 -50.05139858 711.15166543 C-51.64472749 711.15056235 -53.23805869 711.15108456 -54.83138608 711.15354122 C-63.2645897 711.16553085 -71.6701464 711.01034532 -80.09379864 710.58926153 C-80.86392508 710.55208761 -81.63405151 710.51491369 -82.42751512 710.47661329 C-106.28669711 709.16456041 -126.7796013 700.74912471 -144.01169777 684.02297926 C-144.68587746 683.42227613 -145.36005714 682.82157301 -146.05466652 682.20266676 C-160.84171138 668.56670922 -171.21859486 646.99571255 -172.10492936 626.9102314 C-172.14195101 624.4923329 -172.14812901 622.07622911 -172.14312553 619.65804911 C-172.14517817 618.73062614 -172.1472308 617.80320318 -172.14934564 616.84767649 C-172.15500757 613.73482764 -172.15355938 610.62202314 -172.15213966 607.50917006 C-172.15472376 605.25684005 -172.15773704 603.0045105 -172.16114306 600.75218159 C-172.16921107 594.55836247 -172.17100253 588.36455494 -172.17174053 582.17073119 C-172.17340137 576.17804498 -172.17971966 570.18536411 -172.18581894 564.19268117 C-172.20186758 548.1398889 -172.20778093 532.08709759 -172.21256769 516.03429873 C-172.21490477 508.43801587 -172.21850755 500.84173376 -172.22226307 493.24545149 C-172.23509756 467.23483479 -172.24581684 441.22421852 -172.24926567 415.21359873 C-172.2494873 413.5812597 -172.24970909 411.94892067 -172.24993102 410.31658164 C-172.25015166 408.68033576 -172.25037214 407.04408988 -172.25059247 405.40784401 C-172.25103502 402.12534026 -172.25148214 398.84283652 -172.25193214 395.56033278 C-172.25204154 394.74646465 -172.25215093 393.93259653 -172.25226363 393.09406574 C-172.25589374 366.70820157 -172.27181258 340.32236488 -172.29512251 313.93651124 C-172.31973081 286.02985675 -172.33343897 258.12321797 -172.33463359 230.21655232 C-172.33480504 227.15178446 -172.33502047 224.0870166 -172.33526802 221.02224874 C-172.33532379 220.26763486 -172.33537956 219.51302097 -172.33543702 218.73553999 C-172.33658658 206.60342483 -172.34760055 194.47133792 -172.36215508 182.3392323 C-172.37653723 170.13965499 -172.37974736 157.94011382 -172.3717151 145.74053036 C-172.36765768 139.13432613 -172.36873662 132.52819662 -172.38277245 125.9219985 C-172.39551311 119.86999003 -172.39431217 113.8181477 -172.38218173 107.76613946 C-172.38022505 105.58105191 -172.3833018 103.39595259 -172.3920261 101.21088158 C-172.50443398 71.14496468 -163.58681717 47.06835484 -142.54294777 25.49172926 C-123.70426592 7.63168024 -99.6539143 0.4249647 -74.30472755 0.41950941 C-72.7033676 0.40481433 -71.10202204 0.38847551 -69.5006938 0.37065661 C-65.16442796 0.32747295 -60.8283696 0.3085943 -56.49192399 0.29462315 C-52.7637513 0.27944131 -49.03574711 0.24977698 -45.30766602 0.2200779 C-33.23077131 0.123932 -21.15388909 0.07283011 -9.07669377 0.03331035 C-6.05112506 0.02311216 -3.02556297 0.01177042 0 0 Z " fill="#FAFAF8" transform="translate(193.01169776916504,7.977020740509033)"/>
<path d="M0 0 C1.19494583 0.00422974 1.19494583 0.00422974 2.41403198 0.00854492 C29.88350551 0.15449619 56.8005571 5.6623395 81.4375 18.3125 C82.09218262 18.64862305 82.74686523 18.98474609 83.42138672 19.33105469 C91.72384655 23.66777564 99.50238931 28.52291704 107.01025391 34.1262207 C109.49586044 35.97798643 111.47076266 37.32358755 114.4375 38.3125 C116.80120974 37.23814062 116.80120974 37.23814062 119.3125 35.55078125 C120.28928711 34.93170898 121.26607422 34.31263672 122.27246094 33.67480469 C123.31692383 32.99836914 124.36138672 32.32193359 125.4375 31.625 C126.50516602 30.94469727 127.57283203 30.26439453 128.67285156 29.56347656 C130.86708608 28.16488886 133.05880798 26.76235161 135.24804688 25.35595703 C138.19200307 23.46978791 141.14673892 21.60274219 144.109375 19.74609375 C145.40101563 18.93628052 145.40101563 18.93628052 146.71875 18.11010742 C147.94078125 17.34404175 147.94078125 17.34404175 149.1875 16.5625 C154.57440526 13.24061374 154.57440526 13.24061374 159.67578125 9.51171875 C162.96177121 7.27491405 166.63730642 7.69496854 170.4375 8.3125 C173.8665034 10.35531054 176.3533558 12.40958087 177.4375 16.3125 C177.1361339 22.42959059 175.81250342 26.09009259 172 30.9375 C171.08164391 32.16247012 170.16368595 33.38773881 169.24609375 34.61328125 C168.77671387 35.22896973 168.30733398 35.8446582 167.82373047 36.47900391 C165.67680261 39.3186355 163.62163243 42.22142708 161.5625 45.125 C160.74493043 46.26963038 159.92721848 47.41415907 159.109375 48.55859375 C154.19196894 55.45755727 149.31727959 62.38690216 144.4375 69.3125 C146.42602539 72.87091385 148.43534194 76.36733433 150.69921875 79.7578125 C174.75566632 115.97840995 183.10860269 162.10085579 174.68359375 204.6171875 C174.27684547 206.51748972 173.86168785 208.41601447 173.4375 210.3125 C173.23914551 211.20098633 173.04079102 212.08947266 172.83642578 213.00488281 C167.96298852 233.87110344 158.73636333 253.78501513 146.4375 271.3125 C146.04771973 271.86905273 145.65793945 272.42560547 145.25634766 272.99902344 C135.79696983 286.28541774 124.52205624 298.55789998 111.4375 308.3125 C110.91752441 308.70743652 110.39754883 309.10237305 109.86181641 309.50927734 C91.68891791 323.26362513 71.39990599 333.38097602 49.5 339.75 C48.69731689 339.98485107 47.89463379 340.21970215 47.06762695 340.46166992 C33.94850805 344.05509251 20.99309801 344.66086801 7.48071289 344.62817383 C4.77123296 344.62502468 2.06286079 344.64852551 -0.64648438 344.67382812 C-16.00582892 344.73058929 -31.1301215 343.24692233 -45.8125 338.5 C-46.64128662 338.23993164 -47.47007324 337.97986328 -48.32397461 337.71191406 C-67.34253674 331.62978927 -85.31990487 323.33349703 -101.04443359 310.89599609 C-101.69750488 310.39922363 -102.35057617 309.90245117 -103.0234375 309.390625 C-103.58853027 308.94106445 -104.15362305 308.49150391 -104.73583984 308.02832031 C-106.62893491 307.07558386 -106.62893491 307.07558386 -108.93164062 307.96972656 C-111.78567946 309.42640934 -114.48414843 311.00988404 -117.1953125 312.71875 C-118.24847656 313.38003906 -119.30164063 314.04132813 -120.38671875 314.72265625 C-121.47597656 315.41230469 -122.56523437 316.10195313 -123.6875 316.8125 C-124.78449219 317.50214844 -125.88148438 318.19179688 -127.01171875 318.90234375 C-132.81966604 322.5570508 -132.81966604 322.5570508 -138.5625 326.3125 C-143.38948169 326.8574818 -145.45842369 327.02554929 -149.5625 324.375 C-152.24372845 320.26936893 -152.26376409 317.10812893 -151.5625 312.3125 C-150.4391096 309.6068358 -148.87627523 307.39955872 -147.125 305.0625 C-146.67922607 304.42916748 -146.23345215 303.79583496 -145.77416992 303.14331055 C-144.39085597 301.18392091 -142.98101178 299.24652212 -141.5625 297.3125 C-140.23149288 295.48780852 -138.90457788 293.66092114 -137.59155273 291.82324219 C-136.43671531 290.21115126 -135.25994829 288.61483627 -134.08203125 287.01953125 C-132.40239601 284.53749353 -132.40239601 284.53749353 -132.546875 282.30078125 C-134.00938814 279.43763054 -135.94972921 277.16317799 -138 274.6875 C-159.54231459 247.65515563 -171.0294864 210.37587564 -170.82324219 176.11157227 C-170.81256224 174.01223529 -170.82318617 171.91376373 -170.8359375 169.81445312 C-170.85059279 156.86021947 -169.65899722 144.06739598 -166.375 131.5 C-166.05354004 130.25416138 -166.05354004 130.25416138 -165.72558594 128.9831543 C-153.65467028 83.79405101 -124.55845781 48.16318954 -85.5625 23.3125 C-84.60214844 22.68601563 -83.64179688 22.05953125 -82.65234375 21.4140625 C-58.23040632 6.23192981 -28.43937602 -0.14532773 0 0 Z " fill="#FEC451" transform="translate(359.5625,196.6875)"/>
<path d="M0 0 C29.3562399 -0.1138296 58.71230722 -0.14260429 88.06874371 -0.14427781 C94.98597905 -0.14478241 101.90321312 -0.14709725 108.82044792 -0.14977503 C131.80592705 -0.15848826 154.79140164 -0.16320597 177.77688244 -0.16244455 C179.60678426 -0.16238462 179.60678426 -0.16238462 181.47365379 -0.16232347 C182.69512878 -0.16228259 183.91660376 -0.16224171 185.17509314 -0.16219959 C205.15917897 -0.16178934 225.14324631 -0.17147748 245.12732676 -0.18546184 C265.83079829 -0.1998326 286.53426077 -0.20673255 307.23773742 -0.20586807 C318.79032484 -0.20553774 330.34289253 -0.20821639 341.89547539 -0.21904612 C351.67223628 -0.22815734 361.44896834 -0.23031891 371.22573164 -0.22353669 C376.19845302 -0.22028298 381.17111903 -0.2201748 386.14383507 -0.22888994 C390.7032761 -0.23679951 395.26261823 -0.23527882 399.82205698 -0.22660581 C401.45978146 -0.22508135 403.0975135 -0.22684659 404.73522905 -0.23246589 C436.61884687 -0.33453299 464.01261572 7.04307572 487.53908348 29.45266676 C503.96885207 46.7620948 513.1852971 69.33597759 513.11693668 93.19465399 C513.11868972 93.98091742 513.12044276 94.76718085 513.12224892 95.57727045 C513.12688951 98.20387508 513.12444844 100.83042388 513.122015 103.45703077 C513.12388394 105.36246651 513.12618498 107.26790187 513.12888032 109.17333663 C513.1349943 114.40348717 513.1348652 119.63362171 513.13368595 124.86377501 C513.13348184 130.50668935 513.13900159 136.14959856 513.14374352 141.79251051 C513.15204814 152.84524972 513.15479826 163.89798359 513.15535589 174.95072566 C513.15583109 183.93405092 513.15788601 192.91737443 513.16105652 201.90069914 C513.16842947 223.22508903 513.17458141 244.54947727 513.17405796 265.87386847 C513.17404238 266.55556959 513.1740268 267.23727072 513.17401075 267.93962946 C513.17392765 271.39466899 513.17382861 274.84970852 513.17372604 278.30474804 C513.17369613 279.33399919 513.17369613 279.33399919 513.1736656 280.3840433 C513.17362517 281.77163997 513.17358337 283.15923664 513.17354021 284.54683332 C513.17292739 306.13800979 513.18043596 327.72917056 513.19411278 349.32034254 C513.2094768 373.58497482 513.21806616 397.84959357 513.21714956 422.11423171 C513.21681745 434.95938987 513.21957072 447.80453032 513.23032761 460.64968443 C513.23942617 471.58463569 513.2416131 482.5195612 513.23481818 493.45451461 C513.2315499 499.03341116 513.23150749 504.61225831 513.24017143 510.19115019 C513.24802351 515.2997854 513.24661818 520.40833191 513.2378873 525.51696493 C513.23634948 527.36345987 513.23817906 529.20996138 513.24374738 531.05644856 C513.27755443 543.06385636 513.05206628 553.98545139 507.55080223 564.89797926 C507.27043114 565.5154402 506.99006004 566.13290113 506.70119286 566.76907301 C500.53345019 579.2050511 487.80762683 589.35443248 478.07033348 599.07376051 C476.75986004 600.38490988 475.44953488 601.69620747 474.13934898 603.00764418 C471.41556889 605.73288556 468.69002185 608.45634341 465.96315575 611.17849684 C462.48681056 614.64912284 459.01500657 618.12425157 455.54450512 621.60071993 C452.8481433 624.3007106 450.1493855 626.9982963 447.44991684 629.69518042 C446.16909384 630.97534176 444.88899818 632.25623128 443.60968018 633.53789663 C437.8581387 639.29768411 432.13714456 645.00212857 425.94040489 650.28657484 C422.10488416 653.69828841 418.55271083 657.40477076 414.95966721 661.06814528 C413.49364555 662.56130109 412.02287519 664.04962815 410.55063438 665.53665113 C406.37034454 669.75919865 402.19290596 673.98444048 398.0320034 678.22610426 C395.47049164 680.83663447 392.8988924 683.4368676 390.32081604 686.0310359 C389.35204745 687.00957603 388.38690883 687.99172613 387.42582321 688.97781324 C374.91518162 701.80669585 361.80149998 709.64524674 343.76168537 710.57754278 C342.96801671 710.61967565 342.17434806 710.66180851 341.35662883 710.70521813 C333.10767734 711.1127178 324.87136888 711.16267463 316.61417198 711.1499629 C314.94575846 711.15111877 313.27734519 711.1527094 311.60893244 711.15469015 C307.08003953 711.15881957 302.55116802 711.15682205 298.02227509 711.15370393 C293.11625032 711.1514237 288.210229 711.15494241 283.30420494 711.15768385 C273.71501244 711.16211273 264.12582779 711.16117791 254.53663499 711.15827121 C246.73736035 711.15600569 238.9380879 711.15570962 231.13881302 711.15679502 C230.02549163 711.15694826 228.91217024 711.15710149 227.76511184 711.15725937 C225.50286035 711.15757912 223.24060886 711.15790333 220.97835737 711.15823196 C199.80269728 711.16107834 178.62704153 711.15781301 157.45138215 711.15243159 C139.31435399 711.14796494 121.17733223 711.14873998 103.04030418 711.15335035 C81.93794555 711.15871205 60.83559071 711.16080308 39.73323148 711.15773809 C37.47935673 711.15741957 35.22548197 711.1571052 32.97160721 711.15679502 C31.86288997 711.15664075 30.75417273 711.15648647 29.611858 711.15632752 C21.82995488 711.15546711 14.04805418 711.15691499 6.26615143 711.15927458 C-3.22890371 711.16209054 -12.7239506 711.16129661 -22.2190048 711.15599383 C-27.05579977 711.15338088 -31.892581 711.15231058 -36.72937584 711.15564299 C-41.17005962 711.15865602 -45.61071714 711.15693119 -50.05139858 711.15166543 C-51.64472749 711.15056235 -53.23805869 711.15108456 -54.83138608 711.15354122 C-63.2645897 711.16553085 -71.6701464 711.01034532 -80.09379864 710.58926153 C-80.86392508 710.55208761 -81.63405151 710.51491369 -82.42751512 710.47661329 C-106.28669711 709.16456041 -126.7796013 700.74912471 -144.01169777 684.02297926 C-144.68587746 683.42227613 -145.36005714 682.82157301 -146.05466652 682.20266676 C-160.84171138 668.56670922 -171.21859486 646.99571255 -172.10492936 626.9102314 C-172.14195101 624.4923329 -172.14812901 622.07622911 -172.14312553 619.65804911 C-172.14517817 618.73062614 -172.1472308 617.80320318 -172.14934564 616.84767649 C-172.15500757 613.73482764 -172.15355938 610.62202314 -172.15213966 607.50917006 C-172.15472376 605.25684005 -172.15773704 603.0045105 -172.16114306 600.75218159 C-172.16921107 594.55836247 -172.17100253 588.36455494 -172.17174053 582.17073119 C-172.17340137 576.17804498 -172.17971966 570.18536411 -172.18581894 564.19268117 C-172.20186758 548.1398889 -172.20778093 532.08709759 -172.21256769 516.03429873 C-172.21490477 508.43801587 -172.21850755 500.84173376 -172.22226307 493.24545149 C-172.23509756 467.23483479 -172.24581684 441.22421852 -172.24926567 415.21359873 C-172.2494873 413.5812597 -172.24970909 411.94892067 -172.24993102 410.31658164 C-172.25015166 408.68033576 -172.25037214 407.04408988 -172.25059247 405.40784401 C-172.25103502 402.12534026 -172.25148214 398.84283652 -172.25193214 395.56033278 C-172.25204154 394.74646465 -172.25215093 393.93259653 -172.25226363 393.09406574 C-172.25589374 366.70820157 -172.27181258 340.32236488 -172.29512251 313.93651124 C-172.31973081 286.02985675 -172.33343897 258.12321797 -172.33463359 230.21655232 C-172.33480504 227.15178446 -172.33502047 224.0870166 -172.33526802 221.02224874 C-172.33532379 220.26763486 -172.33537956 219.51302097 -172.33543702 218.73553999 C-172.33658658 206.60342483 -172.34760055 194.47133792 -172.36215508 182.3392323 C-172.37653723 170.13965499 -172.37974736 157.94011382 -172.3717151 145.74053036 C-172.36765768 139.13432613 -172.36873662 132.52819662 -172.38277245 125.9219985 C-172.39551311 119.86999003 -172.39431217 113.8181477 -172.38218173 107.76613946 C-172.38022505 105.58105191 -172.3833018 103.39595259 -172.3920261 101.21088158 C-172.50443398 71.14496468 -163.58681717 47.06835484 -142.54294777 25.49172926 C-123.70426592 7.63168024 -99.6539143 0.4249647 -74.30472755 0.41950941 C-72.7033676 0.40481433 -71.10202204 0.38847551 -69.5006938 0.37065661 C-65.16442796 0.32747295 -60.8283696 0.3085943 -56.49192399 0.29462315 C-52.7637513 0.27944131 -49.03574711 0.24977698 -45.30766602 0.2200779 C-33.23077131 0.123932 -21.15388909 0.07283011 -9.07669377 0.03331035 C-6.05112506 0.02311216 -3.02556297 0.01177042 0 0 Z M-128.61716652 51.14407301 C-143.13405315 68.59749136 -144.31481967 87.83935573 -144.27239418 109.63107252 C-144.27541735 111.83267081 -144.27930766 114.03426805 -144.28398675 116.23586345 C-144.29425417 122.26632002 -144.2920881 128.29671705 -144.28780615 134.32717848 C-144.28559052 140.16920467 -144.29275466 146.01121469 -144.29956641 151.85323622 C-144.31478318 165.27196557 -144.31651385 178.690676 -144.31404338 192.10941216 C-144.31220856 202.47417092 -144.31397429 212.83892349 -144.31826782 223.20368147 C-144.31887023 224.69438597 -144.31947143 226.18509047 -144.32007143 227.67579497 C-144.32097871 229.92233311 -144.32188738 232.16887125 -144.32280378 234.41540939 C-144.33122992 255.29508115 -144.33557137 276.17475059 -144.33139706 297.05442381 C-144.33124068 297.8410755 -144.3310843 298.62772719 -144.33092319 299.43821681 C-144.33011744 303.42499682 -144.32927167 307.41177681 -144.32840989 311.3985568 C-144.3282388 312.19029934 -144.32806771 312.98204189 -144.32789144 313.79777664 C-144.32754478 315.39887148 -144.32719625 316.99996633 -144.32684585 318.60106117 C-144.32148969 343.50929266 -144.32941748 368.41748875 -144.34787941 393.32571363 C-144.36861284 421.33115013 -144.37931953 449.3365647 -144.37530392 477.34200931 C-144.3749086 480.3303442 -144.37454705 483.31867909 -144.37420654 486.30701399 C-144.37411581 487.04277957 -144.37402508 487.77854516 -144.3739316 488.53660667 C-144.37276745 499.62556659 -144.3794 510.71450431 -144.39001846 521.80345869 C-144.40208849 534.42091651 -144.40360872 547.03832553 -144.3912283 559.6557841 C-144.38534317 566.09013018 -144.38423018 572.52438097 -144.3962307 578.95872068 C-144.40710116 584.8558211 -144.4039721 590.75274679 -144.38996901 596.64983907 C-144.38732531 598.77626503 -144.38967826 600.90270474 -144.39770488 603.0291172 C-144.51807278 625.42404221 -144.51807278 625.42404221 -137.38669777 646.39797926 C-137.04114845 647.05733473 -136.69559914 647.7166902 -136.33957863 648.39602613 C-133.05571383 654.40602113 -128.95734218 659.29050917 -124.01169777 664.02297926 C-123.32591652 664.72809645 -122.64013527 665.43321363 -121.93357277 666.15969801 C-109.91966138 677.83988964 -93.19786479 683.15103087 -76.70038891 683.14602709 C-75.64232605 683.14775785 -75.64232605 683.14775785 -74.56288818 683.14952359 C-72.20551439 683.1521649 -69.84820926 683.14768865 -67.490839 683.14323378 C-65.7812549 683.14366999 -64.07167087 683.14454581 -62.36208719 683.14582294 C-57.6690441 683.14805812 -52.97602384 683.14405996 -48.28298366 683.13904488 C-43.22034638 683.13472656 -38.15771039 683.13618779 -33.09507179 683.13694715 C-24.3252685 683.13747151 -15.55547265 683.13433391 -6.78567123 683.12870932 C5.89399132 683.1205824 18.57365028 683.11797787 31.25331516 683.11672132 C51.82521719 683.11453268 72.39711525 683.10787768 92.96901512 683.09841871 C112.95273888 683.08923975 132.93646156 683.08216128 152.920187 683.0779109 C154.15197711 683.07764818 155.38376721 683.07738545 156.6528843 683.07711477 C162.83241128 683.07580973 169.01193827 683.07454602 175.19146526 683.07330287 C226.45708032 683.0629361 277.72269108 683.04532288 328.98830223 683.02297926 C328.99194786 681.79317335 328.99559349 680.56336744 328.99934959 679.29629469 C329.03646236 667.64593672 329.09441127 655.99583909 329.17220497 644.34567976 C329.21153475 638.35773149 329.24379399 632.3699271 329.25929832 626.38186598 C329.27456082 620.59151881 329.30917475 614.8015676 329.35661125 609.01139784 C329.37132674 606.81411657 329.37933752 604.61677875 329.38018608 602.41944838 C329.39719968 580.4322899 332.10095478 560.96174634 348.18361473 544.65579176 C351.86013973 541.20456913 355.58675122 538.46465598 359.98830223 536.02297926 C360.95316551 535.46030348 360.95316551 535.46030348 361.93752098 534.88626051 C370.73073708 530.08833935 379.97014737 528.57552 389.8757534 528.59060621 C390.9014846 528.58041456 391.92721581 528.57022291 392.98402977 528.55972242 C396.3331674 528.52982319 399.68201796 528.52036188 403.03127098 528.51126051 C405.36968481 528.49439672 407.70808967 528.47624422 410.04648399 528.45686293 C416.17016865 528.40954161 422.29381691 528.37961678 428.41762352 528.3534236 C434.67888637 528.32352768 440.94002406 528.27702849 447.20119286 528.23196363 C459.46349694 528.14613389 471.72582692 528.07869844 483.98830223 528.02297926 C484.07989047 471.71534739 484.15035759 415.40772294 484.19256355 359.10003119 C484.19756628 352.44991676 484.20273892 345.79980246 484.20802879 339.14968824 C484.20881335 338.15706509 484.20881335 338.15706509 484.20961375 337.14438894 C484.2271727 315.04912512 484.25899191 292.95390743 484.29691342 270.85867005 C484.33434119 248.86742897 484.35654198 226.87621039 484.36465621 204.88493878 C484.37014015 191.31902303 484.38745061 177.75322884 484.4199681 164.18735052 C484.44113862 154.88025776 484.44749651 145.5732277 484.44230774 136.26611262 C484.43974994 130.89923983 484.44362566 125.53257921 484.46512413 120.1657443 C484.48469266 115.24457263 484.48550575 110.32375438 484.47189781 105.4025659 C484.47021776 103.62975986 484.47520421 101.85693111 484.48783496 100.08416926 C484.62771348 79.22541029 479.56429209 62.6197632 464.98830223 47.02297926 C448.23134367 30.64031703 427.25847121 28.56211347 405.04410362 28.64202833 C402.93906059 28.63856691 400.83401937 28.63379911 398.72898191 28.6278466 C392.97471953 28.61537349 387.22060725 28.62149021 381.46634448 28.63080525 C375.24878484 28.63761058 369.03125048 28.62710713 362.81369591 28.61886549 C351.34759198 28.60631071 339.88155461 28.60737849 328.41545105 28.61559989 C317.82072067 28.62315882 307.2260077 28.62511097 296.63127518 28.62153196 C295.92737755 28.62130281 295.22347991 28.62107365 294.49825205 28.62083755 C291.64059593 28.61990347 288.78293981 28.61894827 285.9252837 28.61795826 C259.13962752 28.60878938 232.35400159 28.61708858 205.56835008 28.63324895 C181.7943368 28.64748331 158.02037173 28.64621225 134.24635887 28.63186598 C107.50991576 28.61578581 80.77349937 28.60944129 54.03705209 28.61870277 C51.18441642 28.61966486 48.33178074 28.62060338 45.47914505 28.62153196 C44.42562846 28.62188781 44.42562846 28.62188781 43.3508287 28.62225085 C32.76596514 28.62565671 22.18112095 28.62168466 11.59626007 28.6140933 C-0.44550222 28.60549991 -12.48719521 28.6079807 -24.52895539 28.62393554 C-30.66952677 28.63180415 -36.81000047 28.63493385 -42.95057106 28.62498808 C-48.57800165 28.6160115 -54.20524454 28.62102284 -59.83265824 28.63692074 C-61.86210103 28.64025602 -63.89155987 28.6386029 -65.92099225 28.63129337 C-90.3909537 28.54995886 -110.92591539 32.89561712 -128.61716652 51.14407301 Z " fill="#244866" transform="translate(193.01169776916504,7.977020740509033)"/>
<path d="M0 0 C0.78364929 -0.00458221 1.56729858 -0.00916443 2.37469482 -0.0138855 C12.98136691 -0.03847593 22.74282342 0.99816534 33.0625 3.5 C33.87259521 3.68788086 34.68269043 3.87576172 35.51733398 4.06933594 C44.13716128 6.1648087 52.17226989 9.22950347 60.1875 13 C60.96899414 13.36754395 61.75048828 13.73508789 62.55566406 14.11376953 C67.43699136 16.4954952 71.72413275 19.23184006 76.0625 22.5 C72.30436991 26.83949828 67.54676653 29.44524597 62.6875 32.375 C60.78958888 33.53388683 58.89247904 34.69408675 56.99609375 35.85546875 C56.01753418 36.45407715 55.03897461 37.05268555 54.03076172 37.66943359 C49.23830066 40.62500795 44.49389459 43.65479744 39.75 46.6875 C33.47495192 50.69380524 27.19336113 54.68730851 20.875 58.625 C19.58983389 59.42706753 18.30467766 60.2291509 17.01953125 61.03125 C14.98797607 62.2989975 12.95611687 63.56624359 10.92333984 64.83203125 C0.93417998 71.06017922 -8.97212466 77.41428256 -18.8125 83.875 C-19.84117187 84.54096191 -20.86984375 85.20692383 -21.9296875 85.89306641 C-22.8990625 86.53421387 -23.8684375 87.17536133 -24.8671875 87.8359375 C-26.15471924 88.67970947 -26.15471924 88.67970947 -27.46826172 89.54052734 C-33.39339121 94.24243454 -37.2013364 100.73631053 -41.27734375 107.0078125 C-41.88075089 107.92851532 -42.48415802 108.84921814 -43.10585022 109.79782104 C-45.03243281 112.73792038 -46.9542335 115.68109828 -48.875 118.625 C-56.09156325 129.68138987 -63.31500881 140.71389908 -70.9375 151.49609375 C-75.9203102 158.54474879 -80.74748755 165.67835811 -85.47265625 172.90234375 C-86.09369736 173.851698 -86.71473846 174.80105225 -87.354599 175.7791748 C-89.88749573 179.65727609 -92.41585017 183.53829316 -94.93920898 187.42260742 C-96.82014245 190.31512737 -98.70842055 193.20274198 -100.59765625 196.08984375 C-101.16227066 196.96374252 -101.72688507 197.8376413 -102.30860901 198.73802185 C-105.19583115 203.14131073 -108.03594871 206.95432887 -111.9375 210.5 C-121.89374018 195.98930953 -128.15795379 179.64489801 -131.9375 162.5 C-132.23527344 161.23800781 -132.53304687 159.97601563 -132.83984375 158.67578125 C-137.06780873 139.31615212 -135.88481477 119.56972356 -130.9375 100.5 C-130.66462158 99.39519287 -130.66462158 99.39519287 -130.38623047 98.26806641 C-124.90100329 76.32225578 -113.97363493 58.24975031 -98.9375 41.5 C-98.21949219 40.69691406 -97.50148438 39.89382813 -96.76171875 39.06640625 C-90.27146712 32.20947374 -82.71409002 26.7932112 -74.9375 21.5 C-74.33131836 21.08685547 -73.72513672 20.67371094 -73.10058594 20.24804688 C-63.02211164 13.50714237 -52.48924108 9.09512722 -40.9375 5.5 C-39.75099854 5.11255615 -39.75099854 5.11255615 -38.54052734 4.71728516 C-25.79179919 0.68523768 -13.26388673 0.02887974 0 0 Z " fill="#FAFAF7" transform="translate(361.9375,235.5)"/>
<path d="M0 0 C4.15928077 3.50010904 5.90647648 7.55481211 8 12.4375 C8.52436646 13.64792969 8.52436646 13.64792969 9.05932617 14.8828125 C22.76642158 47.07609329 23.37450428 84.69209364 10.5 117.33935547 C-4.36701321 152.67611149 -30.91920366 178.72994822 -66 194 C-99.69777832 206.98333063 -138.24065571 204.41123458 -171.23046875 190.7578125 C-178.07764478 187.67685739 -184.54444668 183.81734428 -191 180 C-187.12695881 175.76527403 -183.06211028 173.00725809 -178.125 170.125 C-170.85227896 165.78004241 -163.70992602 161.2698202 -156.625 156.625 C-155.64990479 155.98643066 -154.67480957 155.34786133 -153.67016602 154.68994141 C-150.77910813 152.7948174 -147.88948213 150.89752537 -145 149 C-134.52115479 142.12752346 -123.99999302 135.33233416 -113.375 128.6875 C-112.38781982 128.06939453 -111.40063965 127.45128906 -110.38354492 126.81445312 C-105.51336649 123.77601878 -100.62868911 120.76573466 -95.70443726 117.81587219 C-93.33229939 116.39433266 -90.96519683 114.96450474 -88.59796143 113.53482056 C-86.92153581 112.52794968 -85.23698668 111.53464329 -83.55224609 110.54174805 C-77.63928376 106.97131739 -73.01185007 103.64287196 -69 98 C-68.54447754 97.38350586 -68.08895508 96.76701172 -67.61962891 96.13183594 C-66.17653049 94.1480133 -64.77210864 92.14144057 -63.375 90.125 C-62.32701983 88.62486242 -61.27883671 87.1248666 -60.23046875 85.625 C-59.69856934 84.861875 -59.16666992 84.09875 -58.61865234 83.3125 C-57.02360072 81.03371735 -55.41503941 78.76520862 -53.80078125 76.5 C-48.96637401 69.71165827 -44.23472633 62.91306213 -39.81640625 55.84375 C-32.26648062 44.02365138 -23.95343944 32.69718143 -15.70996094 21.35693359 C-13.9080679 18.87328491 -12.11331616 16.38460407 -10.3203125 13.89453125 C-9.7226709 13.0648584 -9.1250293 12.23518555 -8.50927734 11.38037109 C-7.35544541 9.77820036 -6.20210783 8.17567347 -5.04931641 6.57275391 C-4.53288574 5.85651855 -4.01645508 5.1402832 -3.484375 4.40234375 C-3.02772461 3.76804443 -2.57107422 3.13374512 -2.10058594 2.48022461 C-1 1 -1 1 0 0 Z " fill="#FAFAF7" transform="translate(479,301)"/>
<path d="M0 0 C22.05411316 19.79215283 32.26573638 60.65426263 34 89 C34.80415648 106.38953116 33.80140724 123.00443104 30 140 C29.80164551 140.88848633 29.60329102 141.77697266 29.39892578 142.69238281 C24.52548852 163.55860344 15.29886333 183.47251513 3 201 C2.61021973 201.55655273 2.22043945 202.11310547 1.81884766 202.68652344 C-7.64053017 215.97291774 -18.91544376 228.24539998 -32 238 C-32.51997559 238.39493652 -33.03995117 238.78987305 -33.57568359 239.19677734 C-51.74858209 252.95112513 -72.03759401 263.06847602 -93.9375 269.4375 C-94.74018311 269.67235107 -95.54286621 269.90720215 -96.36987305 270.14916992 C-109.48899195 273.74259251 -122.44440199 274.34836801 -135.95678711 274.31567383 C-138.66626704 274.31252468 -141.37463921 274.33602551 -144.08398438 274.36132812 C-159.44332892 274.41808929 -174.5676215 272.93442233 -189.25 268.1875 C-190.49317993 267.79739746 -190.49317993 267.79739746 -191.76147461 267.39941406 C-209.99451499 261.56849865 -226.9937888 253.50455401 -242.6875 242.5 C-243.42468262 241.98356934 -244.16186523 241.46713867 -244.92138672 240.93505859 C-246.65679864 239.68019657 -248.33522551 238.34716707 -250 237 C-250 236.34 -250 235.68 -250 235 C-247.83203125 233.38354492 -247.83203125 233.38354492 -244.8125 231.48046875 C-243.72066406 230.78759766 -242.62882812 230.09472656 -241.50390625 229.38085938 C-240.3360312 228.64958992 -239.16806177 227.91847117 -238 227.1875 C-236.86287328 226.46874399 -235.72614952 225.74935004 -234.58984375 225.02929688 C-232.39263345 223.64030019 -230.19090997 222.25841283 -227.984375 220.88427734 C-226.16208083 219.73371563 -224.35520541 218.55761371 -222.578125 217.33837891 C-217.6971709 214.02056871 -217.6971709 214.02056871 -214.484375 213.92578125 C-210.93833439 215.45905353 -207.61150266 217.28859181 -204.25 219.1875 C-187.12332645 228.51097295 -167.57915719 234.45547689 -148 235 C-147.3188916 235.02046387 -146.6377832 235.04092773 -145.93603516 235.06201172 C-112.62349771 235.93278662 -80.83804151 228.23367522 -55 206 C-54.13632812 205.26136719 -53.27265625 204.52273438 -52.3828125 203.76171875 C-49.87417757 201.55427251 -47.43224086 199.29106602 -45 197 C-43.91138672 196.02546875 -43.91138672 196.02546875 -42.80078125 195.03125 C-25.99935962 179.34590126 -14.79917911 157.1273846 -9.47167969 134.95605469 C-9.02675881 133.11096872 -8.53436189 131.27751755 -8.0390625 129.4453125 C-3.24870784 109.00939583 -4.59405777 86.17566937 -10 66 C-10.18191895 65.31454102 -10.36383789 64.62908203 -10.55126953 63.92285156 C-12.87033127 55.52946458 -16.30918677 47.87645738 -20.49707031 40.27612305 C-23.06150667 35.49677984 -23.06150667 35.49677984 -22.75854492 33.04980469 C-21.88954608 30.701522 -20.7661796 28.8985383 -19.33984375 26.83984375 C-18.79682617 26.05077637 -18.25380859 25.26170898 -17.69433594 24.44873047 C-17.11458008 23.62002441 -16.53482422 22.79131836 -15.9375 21.9375 C-15.35129883 21.09074707 -14.76509766 20.24399414 -14.16113281 19.37158203 C-2.319499 2.319499 -2.319499 2.319499 0 0 Z " fill="#FEC451" transform="translate(503,267)"/>
<path d="M0 0 C1.24311943 -0.00644889 2.48623886 -0.01289778 3.76702857 -0.0195421 C5.14891713 -0.01659973 6.53080529 -0.01346428 7.91269302 -0.01015663 C9.37887502 -0.01389217 10.84505502 -0.01849331 12.31123185 -0.02388728 C16.34573259 -0.03614484 20.38015058 -0.03585357 24.4146657 -0.03349853 C28.76381369 -0.03309105 33.1129349 -0.04412295 37.46207047 -0.05361366 C45.9853524 -0.07024021 54.50860668 -0.07572397 63.03190348 -0.07683842 C69.95966182 -0.0777882 76.88741102 -0.08189499 83.81516647 -0.08823967 C103.45117333 -0.10585732 123.0871583 -0.11507783 142.72317311 -0.11357872 C144.31168365 -0.11345885 144.31168365 -0.11345885 145.93228531 -0.11333656 C146.99258368 -0.1132548 148.05288205 -0.11317304 149.14531067 -0.1130888 C166.32771685 -0.11227596 183.51003535 -0.13141178 200.69241616 -0.1596133 C218.32982123 -0.18833346 235.96718354 -0.20215404 253.60461259 -0.20042574 C263.5087938 -0.1997615 273.41288313 -0.20526885 283.3170433 -0.22678185 C291.7503559 -0.24498233 300.18353497 -0.24935038 308.61685869 -0.235763 C312.91963723 -0.22922734 317.22215953 -0.22913754 321.52491379 -0.2464695 C325.46549706 -0.26217927 329.40562048 -0.25935829 333.34619239 -0.24190123 C334.77016471 -0.23882667 336.19417117 -0.24248101 337.61810324 -0.25362138 C345.49326392 -0.31114314 351.28611296 -0.10941782 357.97037125 4.25726891 C360.28287125 6.63226891 360.28287125 6.63226891 361.97037125 9.25726891 C362.83662125 10.58758141 362.83662125 10.58758141 363.72037125 11.94476891 C365.68420018 17.14891557 366.1922338 22.25482886 364.05630875 27.50336266 C360.56715182 33.45744011 356.13739648 38.05699823 349.28528106 39.86899495 C343.85632508 40.77957997 338.30856871 40.53807399 332.81914139 40.52469444 C331.36686941 40.52843333 329.91459945 40.53303581 328.46233267 40.53842509 C324.48021586 40.55064063 320.49818315 40.55039634 316.51605189 40.54803634 C312.21808178 40.54762781 307.92013851 40.55867057 303.62218094 40.56815147 C295.20559046 40.58475359 286.789028 40.59026063 278.37242252 40.59137623 C271.53150174 40.5923269 264.69059018 40.59643816 257.84967232 40.60277748 C238.45273998 40.62038632 219.05582975 40.6296167 199.65888936 40.62811653 C198.61352653 40.62803662 197.56816369 40.62795671 196.4911232 40.62787437 C195.44448379 40.62779261 194.39784439 40.62771085 193.31948864 40.62762661 C176.35066812 40.62681341 159.3819363 40.64596073 142.41314144 40.67415111 C124.98808365 40.70287107 107.56306914 40.71669195 90.13798708 40.71496356 C80.35569317 40.71429944 70.5734923 40.71980162 60.79121971 40.74131966 C52.46411294 40.75951957 44.13714141 40.76388844 35.81002337 40.75030081 C31.56190497 40.74376566 27.3140461 40.7436737 23.0659523 40.76100731 C19.17544814 40.77671861 15.28540973 40.7738946 11.39491706 40.75643905 C9.98920385 40.75336489 8.58345604 40.75701729 7.17778362 40.7681592 C-1.643263 40.83343553 -8.14300336 40.47410587 -15.05306625 34.51117516 C-19.21689248 29.30037529 -21.56070441 25.31983795 -21.3382225 18.37055016 C-20.38662096 11.8538864 -16.7864651 7.53214939 -11.81087875 3.48383141 C-7.77545025 0.7050495 -4.94016688 0.00647084 0 0 Z " fill="#458CE5" transform="translate(146.0296287536621,108.74273109436035)"/>
<path d="M0 0 C3.4290034 2.04281054 5.9158558 4.09708087 7 8 C6.6986339 14.11709059 5.37500342 17.77759259 1.5625 22.625 C0.64414391 23.84997012 -0.27381405 25.07523881 -1.19140625 26.30078125 C-1.66078613 26.91646973 -2.13016602 27.5321582 -2.61376953 28.16650391 C-4.760695 31.00613234 -6.81595545 33.90886858 -8.875 36.8125 C-9.71335266 37.98711409 -10.55189797 39.1615907 -11.390625 40.3359375 C-18.99685663 51.00882681 -26.52242609 61.73661095 -34 72.5 C-44.88135396 88.16286705 -55.83395877 103.78074021 -67.0546875 119.203125 C-76.51009669 132.20896729 -85.6514458 145.40774878 -94.51831055 158.82202148 C-100.62788907 168.06038071 -107.0073819 177.06756765 -113.55175781 186.00244141 C-114.88774025 187.84516027 -116.19609097 189.70331774 -117.4921875 191.57421875 C-118.19601562 192.58097656 -118.89984375 193.58773437 -119.625 194.625 C-120.51058594 195.91277344 -120.51058594 195.91277344 -121.4140625 197.2265625 C-121.93742187 197.81179688 -122.46078125 198.39703125 -123 199 C-126 199 -126 199 -127.60546875 197.7578125 C-128.12753906 197.21898437 -128.64960938 196.68015625 -129.1875 196.125 C-129.71730469 195.59132813 -130.24710937 195.05765625 -130.79296875 194.5078125 C-132 193 -132 193 -132 191 C-132.57941345 190.74623093 -133.1588269 190.49246185 -133.75579834 190.23100281 C-136.25561119 188.85979063 -137.90381721 187.33000744 -139.90722656 185.30395508 C-140.66191223 184.54589066 -141.4165979 183.78782623 -142.19415283 183.00679016 C-143.40515656 181.775597 -143.40515656 181.775597 -144.640625 180.51953125 C-145.90214386 179.25021004 -145.90214386 179.25021004 -147.18914795 177.95524597 C-149.88088337 175.24569471 -152.56586526 172.52957923 -155.25 169.8125 C-157.92066362 167.11410238 -160.59280522 164.41721276 -163.26800537 161.72331238 C-164.93152597 160.04766586 -166.5923676 158.36935397 -168.25006104 156.6879425 C-172.4468477 152.45543441 -176.72686998 148.41084646 -181.246521 144.52516174 C-183.49853912 142.56637473 -185.61639595 140.49671879 -187.71875 138.37890625 C-188.50507813 137.58935547 -189.29140625 136.79980469 -190.1015625 135.98632812 C-190.89304687 135.18646484 -191.68453125 134.38660156 -192.5 133.5625 C-193.32242187 132.73556641 -194.14484375 131.90863281 -194.9921875 131.05664062 C-196.99712113 129.04005041 -198.99966253 127.02114764 -201 125 C-197.38839552 119.49956789 -192.19436375 116.57726983 -186.75 113.125 C-185.73365479 112.47152588 -184.71730957 111.81805176 -183.67016602 111.14477539 C-174.47088975 105.24885315 -165.20012857 99.46585086 -155.921875 93.6953125 C-150.15379316 90.10397236 -144.4163073 86.46608381 -138.6875 82.8125 C-137.77701904 82.23218018 -136.86653809 81.65186035 -135.9284668 81.05395508 C-134.13829027 79.9128484 -132.34816862 78.77165562 -130.55810547 77.63037109 C-121.46449814 71.83469351 -112.3700055 66.04343358 -103.16015625 60.43359375 C-89.47645478 52.09415217 -76.01383018 43.48833486 -62.63989258 34.66308594 C-47.87417545 24.92018198 -32.97271083 15.39563067 -17.91796875 6.10473633 C-15.46286757 4.58261354 -13.09522361 3.07707755 -10.84765625 1.2578125 C-7.50699401 -1.0163804 -3.87168315 -0.62914851 0 0 Z " fill="#EA6135" transform="translate(530,205)"/>
<path d="M0 0 C3.65464986 1.53392788 5.94394 3.7262778 8.703125 6.54296875 C9.60160156 7.45240234 10.50007812 8.36183594 11.42578125 9.29882812 C12.36756931 10.26134531 13.30897355 11.22423819 14.25 12.1875 C16.08606317 14.05842513 17.92456595 15.92695954 19.765625 17.79296875 C20.98427246 19.03856567 20.98427246 19.03856567 22.22753906 20.30932617 C24.37717245 22.39554576 26.54539429 24.36133613 28.81079102 26.31518555 C33.1531777 30.08125662 37.21343458 34.0862918 41.26171875 38.1640625 C42.39224419 39.29671036 42.39224419 39.29671036 43.54560852 40.45223999 C45.92862256 42.84079761 48.30812215 45.23282071 50.6875 47.625 C52.29468818 49.23721216 53.90210807 50.84919338 55.50976562 52.4609375 C58.45675724 55.41605545 61.40243011 58.37247356 64.34643555 61.33056641 C67.22683507 64.22452865 70.11133815 67.1142861 73 70 C74.33333333 71.33333333 75.66666667 72.66666667 77 74 C75.57514656 77.54321124 74.06677546 78.88192783 70.765625 80.7421875 C69.89244629 81.24387451 69.01926758 81.74556152 68.11962891 82.26245117 C67.17265137 82.79459229 66.22567383 83.3267334 65.25 83.875 C57.2581297 88.47588173 49.38484748 93.20458106 41.625 98.1875 C40.23861328 99.07707397 40.23861328 99.07707397 38.82421875 99.98461914 C37.03202519 101.13494024 35.24002532 102.28556315 33.44824219 103.43652344 C30.06888492 105.59462116 26.66028647 107.7037912 23.25 109.8125 C15.64472371 114.53147246 8.16922221 119.44727653 0.68692017 124.35787964 C-7.93210413 130.01344784 -16.59615484 135.59301959 -25.30322266 141.11230469 C-30.72068935 144.54690128 -36.12041941 148.00638276 -41.5 151.5 C-56.10742382 160.9758423 -70.78871891 170.33567507 -85.63842773 179.42797852 C-89.52874325 181.81617011 -93.38155155 184.22734488 -97.14453125 186.8125 C-97.77166016 187.23813232 -98.39878906 187.66376465 -99.04492188 188.10229492 C-100.67172143 189.21611335 -102.28388264 190.35123274 -103.89453125 191.48828125 C-108.00990811 193.49161564 -110.45387719 193.42050468 -115 193 C-118 191.0625 -118 191.0625 -120 188 C-120.94917717 182.4745999 -120.19240611 178.25847261 -117.00317383 173.68847656 C-116.56900146 173.1106543 -116.1348291 172.53283203 -115.6875 171.9375 C-115.01787231 170.99148926 -115.01787231 170.99148926 -114.3347168 170.02636719 C-113.38850388 168.69065325 -112.43396128 167.36080565 -111.47167969 166.03662109 C-109.02434898 162.6498207 -106.67439699 159.19663829 -104.3125 155.75 C-103.84545654 155.07380615 -103.37841309 154.3976123 -102.8972168 153.70092773 C-99.80539062 149.21742365 -96.85483813 144.66399253 -93.96459961 140.04760742 C-91.69190441 136.52206322 -89.31854102 133.07626946 -86.9296875 129.62890625 C-81.86644214 122.29228835 -76.90059265 114.89536209 -71.97238159 107.46759033 C-64.34954403 95.98231479 -56.6790471 84.53057478 -48.9375 73.125 C-47.2225934 70.59769889 -45.5077584 68.07034921 -43.79296875 65.54296875 C-43.34743652 64.88634247 -42.9019043 64.22971619 -42.44287109 63.55319214 C-36.51153304 54.80914108 -30.59442042 46.05548153 -24.68215942 37.29852295 C-23.41246862 35.41844283 -22.14220193 33.53875148 -20.87130737 31.65948486 C-13.78797081 21.18473975 -6.76862931 10.68139546 0 0 Z " fill="#FEA43E" transform="translate(328,330)"/>
<path d="M0 0 C0.83705449 -0.00507454 1.67410899 -0.01014909 2.53652877 -0.0153774 C3.45616087 -0.01587516 4.37579298 -0.01637292 5.32329273 -0.01688576 C6.30026405 -0.02126801 7.27723536 -0.02565027 8.28381187 -0.03016531 C11.5725122 -0.04356878 14.86118573 -0.04973566 18.14990711 -0.0558567 C20.50187266 -0.06375643 22.853837 -0.0720253 25.20580006 -0.08063698 C32.27471979 -0.10460623 39.34364038 -0.11978686 46.41258809 -0.13269705 C49.74233933 -0.13888759 53.07208911 -0.14580538 56.40183926 -0.15255547 C67.4723118 -0.17438574 78.54278477 -0.19307468 89.61327362 -0.20417786 C92.48583639 -0.2071075 95.35839912 -0.21006917 98.2309618 -0.21308327 C99.30189064 -0.21420234 99.30189064 -0.21420234 100.3944544 -0.21534403 C111.95755023 -0.22799504 123.52049222 -0.26121516 135.08351614 -0.3028851 C146.95782108 -0.34532565 158.83204729 -0.36887533 170.70642787 -0.37409842 C177.3723342 -0.37751015 184.03803199 -0.38980551 190.70386791 -0.42220116 C196.97560157 -0.4522443 203.24691608 -0.45860665 209.51870632 -0.4468174 C211.81970881 -0.44659635 214.12073054 -0.45492668 216.42166615 -0.47247124 C219.56556827 -0.49513709 222.70794721 -0.48687874 225.85185719 -0.47098732 C226.76033569 -0.48486941 227.66881419 -0.49875149 228.60482234 -0.51305425 C234.83727424 -0.43554615 239.11395 1.07873974 243.90503407 5.13701439 C247.52210343 9.42852245 248.51540488 13.41496886 248.22144032 19.00029564 C247.4999974 23.872262 245.53744746 26.53209723 242.03003407 29.88701439 C236.10246319 34.15486542 231.44842383 34.42878005 224.35342884 34.40443993 C222.90272623 34.4112366 222.90272623 34.4112366 221.4227165 34.41817057 C218.17930645 34.43083928 214.93606379 34.4291926 211.69263172 34.42754173 C209.36830396 34.4335254 207.04397819 34.44033057 204.71965504 34.44789696 C198.40355623 34.46557978 192.0875116 34.47025328 185.77139044 34.47152853 C180.50041231 34.47342679 175.22944683 34.48078343 169.95847356 34.48787272 C158.23434449 34.50351599 146.51023892 34.50920986 134.78610034 34.50786202 C133.73122254 34.50774215 133.73122254 34.50774215 132.65503407 34.50761986 C131.59886603 34.50749722 131.59886603 34.50749722 130.52136128 34.5073721 C119.10969893 34.50655915 107.69816857 34.52569967 96.2865444 34.55389659 C84.56472426 34.5826311 72.84296848 34.5964366 61.12111223 34.59470904 C54.54193203 34.59419879 47.9629012 34.59991726 41.38375187 34.62106514 C35.19656152 34.64040994 29.00966362 34.64059749 22.82246304 34.62603188 C20.55168894 34.62393808 18.28089673 34.62867847 16.01015377 34.64075279 C12.90995972 34.6561699 9.81077854 34.64691985 6.71060658 34.63149071 C5.81225232 34.64177783 4.91389806 34.65206496 3.98832095 34.66266382 C-2.58725027 34.59035622 -6.92614226 33.10689846 -11.83715343 28.50420189 C-16.32997297 22.58607409 -16.84752166 18.5266935 -16.09496593 11.13701439 C-13.90970252 6.68555187 -11.15551384 3.94816294 -7.09496593 1.13701439 C-4.37507925 0.23038549 -2.79490841 0.00900228 0 0 Z " fill="#55C0A4" transform="translate(144.09496593475342,584.8629856109619)"/>
<path d="M0 0 C-7.18594768 7.95405855 -14.54504721 15.68391067 -22.14697266 23.24462891 C-23.21122391 24.30695403 -24.27524258 25.3695122 -25.33905029 26.43228149 C-27.6024642 28.69257087 -29.86741167 30.95130728 -32.13362503 33.20878983 C-35.71651632 36.7780144 -39.29546043 40.35118005 -42.87387085 43.92489624 C-50.45459292 51.49459366 -58.0395917 59.05999899 -65.625 66.625 C-73.85136728 74.82930869 -82.07696175 83.03438438 -90.29772604 91.24430788 C-93.85696931 94.79856728 -97.41863587 98.35037498 -100.98217511 101.90032697 C-103.18859493 104.09931027 -105.39296137 106.300343 -107.59676361 108.50194931 C-108.62105728 109.52436518 -109.64621785 110.54591337 -110.6722908 111.56654358 C-112.06837092 112.95544764 -113.46111661 114.347701 -114.85366821 115.74014282 C-115.63488855 116.51914255 -116.41610889 117.29814228 -117.22100258 118.10074806 C-119.06080721 119.88406461 -119.06080721 119.88406461 -120 122 C-120.66 121.67 -121.32 121.34 -122 121 C-121.9850842 108.69019677 -121.94330696 96.38079889 -121.86790943 84.07120895 C-121.83372292 78.35438616 -121.8085424 72.63782826 -121.80444336 66.92089844 C-121.80014257 61.39633771 -121.77153221 55.87237368 -121.72656822 50.34799957 C-121.71365004 48.24789159 -121.70926523 46.14771199 -121.71384621 44.04756927 C-121.73696784 30.21991429 -121.3362312 19.02893047 -112 8 C-110.32421875 6.48828125 -110.32421875 6.48828125 -108.6875 5.3125 C-108.15511719 4.91675781 -107.62273438 4.52101563 -107.07421875 4.11328125 C-101.33065956 1.03057999 -95.6254165 0.70180232 -89.25415039 0.69702148 C-87.98442131 0.68436249 -87.98442131 0.68436249 -86.68904114 0.67144775 C-83.90857333 0.64579251 -81.12821165 0.63355536 -78.34765625 0.62109375 C-76.40383583 0.60490252 -74.46002344 0.58772084 -72.51622009 0.56959534 C-67.40825122 0.52400641 -62.30027124 0.48915873 -57.19219971 0.45739746 C-49.0208668 0.40544718 -40.84965307 0.34005999 -32.67846489 0.26918221 C-29.83359183 0.24648026 -26.98873348 0.2301236 -24.14381409 0.21446228 C-22.3876225 0.20104449 -20.63143241 0.18742874 -18.87524414 0.17358398 C-17.70058594 0.16966393 -17.70058594 0.16966393 -16.50219727 0.16566467 C-12.80356086 0.1312466 -9.23577268 -0.05982598 -5.57029724 -0.573349 C-2 -1 -2 -1 0 0 Z " fill="#FDA63F" transform="translate(672,564)"/>
<path d="M0 0 C3.04581486 1.36113013 5.13839026 2.89330096 7.48339844 5.25634766 C8.14378113 5.91688141 8.80416382 6.57741516 9.48455811 7.25796509 C10.18574768 7.96947723 10.88693726 8.68098938 11.609375 9.4140625 C12.33618469 10.14370209 13.06299438 10.87334167 13.81182861 11.62509155 C16.12929198 13.9537388 18.4396995 16.28924826 20.75 18.625 C22.32115444 20.20618653 23.89276371 21.78692125 25.46484375 23.3671875 C29.31518653 27.2395669 33.15976117 31.11760171 37 35 C34 35 34 35 32.48254395 33.83657837 C31.94754272 33.29189911 31.4125415 32.74721985 30.86132812 32.18603516 C30.25059448 31.57184723 29.63986084 30.9576593 29.01062012 30.32485962 C28.35742798 29.65304657 27.70423584 28.98123352 27.03125 28.2890625 C26.35453247 27.60572845 25.67781494 26.92239441 24.98059082 26.21835327 C22.81321694 24.02751877 20.65621868 21.82680977 18.5 19.625 C16.34211626 17.43205605 14.18212261 15.24125102 12.01940918 13.05307007 C10.6728611 11.68954886 9.32941089 10.32295999 7.98937988 8.95303345 C7.37864624 8.3325412 6.7679126 7.71204895 6.13867188 7.07275391 C5.60367065 6.52648346 5.06866943 5.98021301 4.51745605 5.41738892 C2.84880125 3.78177649 2.84880125 3.78177649 0 2 C0 1.34 0 0.68 0 0 Z " fill="#FCC444" transform="translate(353,354)"/>
<path d="M0 0 C0.33 0 0.66 0 1 0 C1 1.65 1 3.3 1 5 C0.34 5 -0.32 5 -1 5 C-1.33 8.96 -1.66 12.92 -2 17 C-2.66 16.67 -3.32 16.34 -4 16 C-4.46450943 9.49686791 -3.32575612 5.5825192 0 0 Z " fill="#3783E4" transform="translate(129,117)"/>
<path d="M0 0 C-2.64 2.97 -5.28 5.94 -8 9 C-8 5.42424104 -6.91159393 3.94704065 -5 1 C-6.65 1 -8.3 1 -10 1 C-10 0.67 -10 0.34 -10 0 C-2.25 -1.125 -2.25 -1.125 0 0 Z " fill="#F0BC39" transform="translate(672,564)"/>
<path d="M0 0 C-0.33 0.66 -0.66 1.32 -1 2 C-1.86625 2.144375 -2.7325 2.28875 -3.625 2.4375 C-7.51508325 3.08584721 -10.42835343 4.35704258 -14 6 C-14 5.34 -14 4.68 -14 4 C-12.42466914 3.13116294 -10.83935491 2.28040932 -9.25 1.4375 C-8.36828125 0.96183594 -7.4865625 0.48617187 -6.578125 -0.00390625 C-3.79298812 -1.07998186 -2.73019786 -1.06528748 0 0 Z " fill="#153051" transform="translate(565,540)"/>
<path d="M0 0 C3.33524284 2.69995849 4.56351308 6.03255995 6 10 C6.1875 12.9375 6.1875 12.9375 6 15 C4.19969878 12.29954818 3.06622934 9.93322119 1.875 6.9375 C1.52179687 6.05964844 1.16859375 5.18179688 0.8046875 4.27734375 C0 2 0 2 0 0 Z " fill="#253E5E" transform="translate(695,60)"/>
<path d="M0 0 C0.66 0 1.32 0 2 0 C2.33 0.99 2.66 1.98 3 3 C2.01 3.33 1.02 3.66 0 4 C-1.20882096 6.00016466 -1.20882096 6.00016466 -2 8 C-1.125 2.25 -1.125 2.25 0 0 Z " fill="#1B3858" transform="translate(32,57)"/>
</svg>
